PathFileType	4	(X/Y/Z)	D:\TRACE\spotREDO_2-26-24\spot_Both_Motion_1_1-v60.trc
DataRate	CameraRate	NumFrames	NumMarkers	Units	OrigDataRate	OrigDataStartFrame	OrigNumFrames
100.00	100.00	      21	9	mm	100.00	3501	      7000
Frame#	Time	front left toe			Front right toe			aft left toe			aft right toe			Arm			FL body			FR body			AL Body			AR Body			
		X1	Y1	Z1	X2	Y2	Z2	X3	Y3	Z3	X4	Y4	Z4	X5	Y5	Z5	X6	Y6	Z6	X7	Y7	Z7	X8	Y8	Z8	X9	Y9	Z9	

3501	35.000	-213.56149	7.51992	-487.08383	182.13371	8.91629	-430.83319	-300.11752	21.37997	118.92676	140.26988	27.10453	139.20065	1.17637	668.80139	-795.29510	-91.46301	547.75696	-538.68481	63.64342	550.23071	-523.63397	-183.34135	571.81708	340.09634	-43.31020	574.85492	356.13638	
3502	35.010	-213.88292	8.13728	-487.23874	182.04851	9.22104	-430.48407	-300.50558	21.25156	119.01711	140.11255	27.10601	139.42682	0.77858	671.69122	-794.68256	-90.02058	547.79681	-539.35327	65.04557	550.27734	-524.03693	-183.42874	571.82330	339.40692	-43.26519	574.93390	355.22784	
3503	35.020	-214.10204	8.52443	-487.37436	181.59006	9.13075	-430.63242	-300.97870	21.28036	118.94591	139.42432	26.88016	139.36082	-0.07464	674.66870	-793.78918	-88.52391	548.01868	-539.96912	66.31270	550.57867	-524.66669	-183.24770	571.49939	338.59613	-43.24768	574.86163	354.58914	
3504	35.030	-214.46402	9.02113	-487.25314	181.03268	9.20625	-430.42383	-301.49576	21.36540	118.83588	138.99942	26.67812	139.64665	-0.79114	677.40668	-793.01166	-87.17314	548.66443	-540.69196	67.48010	551.41309	-525.05725	-182.85992	570.94666	337.79343	-43.14049	574.58643	354.15363	
3505	35.040	-214.82695	9.42407	-487.09763	180.62666	9.60393	-430.20270	-301.75131	21.19859	118.85914	138.94632	26.65794	139.84175	-1.50612	679.83539	-792.26563	-86.20387	549.39502	-541.24658	68.60141	552.61218	-525.53894	-182.43878	570.18616	337.21405	-43.07067	574.14148	353.68677	
3506	35.050	-215.23810	9.78200	-487.13403	179.99028	9.78872	-430.25934	-302.32672	21.21078	118.84992	138.26566	26.32006	139.87393	-1.99790	681.78192	-791.73627	-85.35751	550.66101	-541.62927	69.67125	553.28931	-525.28809	-181.87737	569.15436	336.81158	-42.25452	572.99048	353.21716	
3507	35.060	-215.63844	10.11238	-487.12250	179.36566	9.93097	-430.54922	-302.80688	21.33023	118.94246	137.74825	26.22589	140.14763	-2.00314	682.50916	-791.29865	-84.60219	551.91144	-542.15936	70.06519	555.03833	-526.20410	-181.34521	568.16693	336.43118	-41.82015	572.07080	352.83551	
3508	35.070	-216.02783	10.28390	-487.21497	178.96507	10.14567	-430.65048	-303.10608	21.42942	119.11443	137.61197	26.14894	140.27077	-1.84511	682.85321	-791.01031	-84.32743	552.96997	-542.31366	70.67371	556.41925	-526.76154	-180.42711	567.24823	335.99637	-40.91376	572.55798	351.14911	
3509	35.080	-216.69092	10.64212	-487.15875	178.54031	10.26062	-430.47012	-303.24545	21.48056	119.16122	137.25632	25.98838	140.27724	-1.51959	682.80768	-791.00085	-83.87966	553.88531	-542.69757	71.03858	557.35956	-527.10657	-179.60316	566.54486	335.90884	-40.79492	572.09766	350.67191	
3510	35.090	-217.29710	11.02272	-487.18820	178.39212	10.69429	-430.35941	-303.76169	21.58029	119.24173	136.90526	25.84169	140.29645	-1.30491	682.53357	-790.95154	-83.49206	554.99127	-543.25372	71.30397	558.35559	-527.42450	-179.17157	565.87231	335.56519	-40.21057	571.60394	350.32440	
3511	35.100	-218.02434	11.50586	-487.19177	177.83086	11.03668	-430.07071	-304.30920	21.70879	119.35793	136.12123	25.51221	140.30022	-0.58481	681.80554	-791.07422	-83.12093	555.72937	-543.60211	71.46435	559.08057	-527.86249	-178.43610	565.29498	335.37332	-39.51511	570.95270	350.06491	
3512	35.110	-218.35971	11.54125	-487.12714	177.05359	10.99785	-430.17609	-304.77444	21.73813	119.43354	135.48161	25.25499	140.32324	0.08778	680.71222	-791.03943	-82.90897	556.14636	-543.79205	72.27517	559.41119	-527.71436	-177.70638	564.83777	335.03403	-39.15901	570.79620	349.70569	
3513	35.120	-218.89813	11.78921	-487.01648	176.50389	10.96790	-430.00641	-305.19342	21.83922	119.57052	134.95540	25.25096	140.54741	0.47924	679.90424	-791.15521	-82.48235	556.32263	-544.08594	72.34351	560.09955	-528.57458	-177.56981	564.95160	334.60669	-38.78335	570.73981	349.42743	
3514	35.130	-219.30539	12.10427	-487.00381	175.84256	10.88886	-430.17261	-305.70770	21.71934	119.59270	134.71848	25.32291	140.80835	0.68122	679.19379	-791.43701	-81.91166	556.36481	-544.50378	72.66805	560.24371	-528.97522	-177.35437	564.92725	334.17059	-38.53801	570.77588	349.01382	
3515	35.140	-219.78189	12.37901	-487.02191	175.54637	10.95407	-430.14014	-306.06381	21.69922	119.60349	133.78242	24.93135	140.74922	1.03903	678.40680	-791.40417	-81.50075	556.45856	-544.84436	73.33350	560.31458	-529.17316	-177.30933	564.97205	333.86005	-38.40930	570.85876	348.71259	
3516	35.150	-220.48698	12.67212	-487.03381	175.07106	11.14508	-429.99356	-307.02621	21.85162	119.62547	133.52071	24.82996	140.74799	1.01499	677.87054	-791.46979	-80.89437	556.31830	-545.29919	73.85017	560.37292	-529.58612	-177.33492	565.04565	333.35666	-38.45378	570.98853	348.24329	
3517	35.160	-221.12746	12.90440	-487.01993	174.44662	11.14152	-429.94873	-307.52713	21.60418	119.62840	132.92174	24.93648	140.90648	0.90752	677.62549	-791.46448	-80.28261	556.23883	-545.78308	74.36760	560.27301	-529.80469	-177.50143	565.05304	332.79700	-38.70942	571.14594	347.85446	
3518	35.170	-221.57617	13.21736	-487.10919	174.02591	11.28739	-429.62958	-308.14957	21.60090	119.72179	132.13138	24.93864	141.01526	0.60344	677.49481	-791.52863	-79.78302	556.20227	-546.15051	74.91724	560.22778	-530.10449	-177.66019	565.00995	332.18500	-39.16206	571.28290	347.41791	
3519	35.180	-222.32559	13.88175	-486.91104	173.24306	11.50522	-429.49319	-308.88516	21.52712	119.57698	131.51369	24.73300	141.04947	0.23998	677.57623	-791.57227	-79.27373	556.12207	-546.44391	75.30563	560.32269	-530.28583	-177.84494	564.84937	331.74933	-39.39333	571.20728	347.10065	
3520	35.190	-222.68404	13.88471	-487.01157	172.86726	11.79941	-429.27811	-309.76474	21.69590	119.49462	130.75104	24.47492	141.09192	0.01302	677.75250	-791.59998	-79.00034	556.31055	-546.85254	75.79774	560.29810	-530.00140	-178.24315	564.73535	331.32382	-39.66615	571.14673	346.71933	
3521	35.200	-223.14670	14.24467	-487.09372	172.19250	11.80428	-429.42700	-310.23413	21.54848	119.60447	130.38307	24.46424	141.15335	-0.65273	678.30896	-791.81317	-78.77650	556.49036	-547.25952	76.28281	560.51678	-530.23584	-178.49648	564.47400	331.03973	-39.97948	570.88318	346.42117	
